# xmcd CD database file
#
# Track frame offsets:
#	150
#	17512
#	28480
#	45527
#	59250
#	73757
#	86390
#	97387
#	109887
#	122647
#	139320
#	148742
#
# Disc length: 2258 seconds
#
# Revision: 3
# Processed by: cddbd v1.5.2PL0 Copyright (c) Steve Scherf et al.
# Submitted via: CDex 1.50
#
DISCID=b308d00c
DTITLE=Charlie Pride - PRIDE! My 6 Latest and 6 Greatest
DYEAR=1994
DGENRE=Country
TTITLE0=Just for the Love of it
TTITLE1=Walk on By
TTITLE2=I've Been There
TTITLE3=Burnin' Down the Town
TTITLE4=For Today
TTITLE5=I Came Straight to You
TTITLE6=Is Anybody Goin' to San Antone
TTITLE7=Crystal Chanderliers
TTITLE8=Hope You're Feelin' Me (Like I'm Feelin' You)
TTITLE9=Roll on Mississippi
TTITLE10=Kiss an Angel Good Morning
TTITLE11=You're so Good When You're Bad
EXTD=YEAR: 1994
EXTT0=
EXTT1=
EXTT2=
EXTT3=
EXTT4=
EXTT5=
EXTT6=
EXTT7=
EXTT8=
EXTT9=
EXTT10=
EXTT11=
PLAYORDER=
